SplineFontDB: 3.2
FontName: NotoSansTagalog-Bold
FullName: Noto Sans Tagalog Bold
FamilyName: Noto Sans Tagalog
Weight: Bold
Copyright: Copyright (c) 2020, The Noto Sans Tagalog Project Authors\n\nThis Font Software is licensed under the SIL Open Font License, Version 1.1.
Version: 3.0
ItalicAngle: 0
UnderlinePosition: -125
UnderlineWidth: 50
Ascent: 800
Descent: 200
InvalidEm: 0
UFOAscent: 800
UFODescent: -200
LayerCount: 2
Layer: 0 0 "Back" 1
Layer: 1 0 "public.default" 0 "glyphs"
StyleMap: 0x0040
FSType: 0
OS2Version: 0
OS2_WeightWidthSlopeOnly: 0
OS2_UseTypoMetrics: 0
CreationTime: 1596957163
ModificationTime: 1596973147
PfmFamily: 16
TTFWeight: 400
TTFWidth: 5
LineGap: 0
VLineGap: 0
Panose: 2 11 5 2 4 5 4 2 2 4
OS2TypoAscent: 1069
OS2TypoAOffset: 0
OS2TypoDescent: -293
OS2TypoDOffset: 0
OS2TypoLinegap: 0
OS2WinAscent: 1069
OS2WinAOffset: 0
OS2WinDescent: 293
OS2WinDOffset: 0
HheadAscent: 1069
HheadAOffset: 0
HheadDescent: -293
HheadDOffset: 0
OS2SubXSize: 650
OS2SubYSize: 600
OS2SubXOff: 0
OS2SubYOff: 75
OS2SupXSize: 650
OS2SupYSize: 600
OS2SupXOff: 0
OS2SupYOff: 350
OS2StrikeYSize: 50
OS2StrikeYPos: 322
OS2CapHeight: 714
OS2XHeight: 536
OS2Vendor: 'GOOG'
OS2CodePages: 00000001.00000000
OS2UnicodeRanges: 80000003.00002000.00100000.00000000
Lookup: 258 0 0 "PamudpodKern" { "PamudpodKern-1" [150,0,2] } ['kern' ('DFLT' <'dflt' > 'hano' <'dflt' > 'tagl' <'TGL ' 'dflt' > ) ]
Lookup: 260 0 0 "markMarkPositioninginTagaloglookup0" { "markMarkPositioninginTagaloglookup0 subtable"  } ['mark' ('DFLT' <'dflt' > 'hano' <'dflt' > 'tagl' <'dflt' > 'tagl' <'TGL ' > ) ]
Lookup: 260 0 0 "markMarkPositioninginTagaloglookup1" { "markMarkPositioninginTagaloglookup1 subtable"  } ['mark' ('DFLT' <'dflt' > 'hano' <'dflt' > 'tagl' <'dflt' > 'tagl' <'TGL ' > ) ]
Lookup: 262 0 0 "Mkmk" { "Mkmk-1"  } ['mkmk' ('DFLT' <'dflt' > 'hano' <'dflt' > 'tagl' <'TGL ' 'dflt' > ) ]
MarkAttachClasses: 1
DEI: 91125
KernClass2: 3 2 "PamudpodKern-1"
 28 uni1700 uni170C uni170C.avar

StartChar: .notdef
Encoding: 0 0 0
GlifName: _notdef
Width: 600
VWidth: 0
Flags: MW
LayerCount: 2
Fore
SplineSet
94 0 m 257
 94 714 l 257
 505 714 l 257
 505 0 l 257
 94 0 l 257
145 51 m 257
 454 51 l 257
 454 663 l 257
 145 663 l 257
 145 51 l 257
EndSplineSet
EndChar

StartChar: uni1700
Encoding: 4 5888 4
GlifName: uni1700
Width: 1034
VWidth: 0
GlyphClass: 2
Flags: MW
LayerCount: 2
Fore
SplineSet
84 303 m 257
 84 442.972 l 257
 258 442.972 l 257
 258 303 l 257
 84 303 l 257
84 483.014 m 257
 84 622.986 l 257
 454 622.986 l 257
 454 483.014 l 257
 84 483.014 l 257
86.668 675.775 m 257
 107.196 814.245 l 257
 165.149 805.192 214.303 780.662 254.659 740.657 c 256
 265.332 729.795 275.103 718.349 283.972 706.32 c 256
 286.657 702.773 289.113 699.236 291.338 695.707 c 256
 325.004 644.742 342.033 582.814 342.426 509.925 c 256
 342.395 502.867 342.221 495.748 341.903 488.569 c 256
 339.814 449.3 328.225 386.648 307.137 300.613 c 256
 305.226 292.803 303.533 285.762 302.056 279.489 c 256
 293.977 244.616 289.436 216.099 288.433 193.939 c 256
 288.339 190.823 288.282 187.95 288.264 185.32 c 256
 288.494 163.016 292.075 144.421 299.005 129.534 c 256
 302.398 123.177 306.121 117.888 310.175 113.668 c 256
 311.233 112.665 311.957 111.98 312.346 111.613 c 256
 317.133 108.024 322.054 105.528 327.108 104.123 c 256
 329.689 103.738 332.129 103.501 334.428 103.412 c 256
 340.117 103.729 345.807 104.841 351.499 106.749 c 256
 362.315 111.153 373.65 118.304 385.504 128.203 c 256
 389.226 131.488 392.696 134.719 395.917 137.896 c 256
 416.73 159.05 439.647 189.473 464.665 229.164 c 258
 575.665 406.164 l 258
 581.894 416.134 590.581 430.403 601.727 448.971 c 256
 630.001 495.978 652.929 531.238 670.512 554.751 c 256
 682.186 570.04 693.942 583.649 705.781 595.578 c 256
 719.352 608.934 733.022 620.428 746.792 630.058 c 256
 783.542 654.641 822.25 667.928 862.919 669.919 c 258
 863.508 669.942 l 258
 866.137 670.013 868.432 670.054 870.394 670.064 c 256
 908.755 669.682 943.771 659.376 975.442 639.144 c 258
 975.711 638.97 l 258
 986.812 631.44 996.679 623.42 1005.31 614.91 c 256
 1024.6 595.146 1039.09 572.16 1048.78 545.952 c 257
 917.217 498.048 l 257
 914.211 505.502 910.578 511.457 906.316 515.915 c 256
 903.769 518.216 901.398 520.143 899.203 521.694 c 256
 889.93 527.145 880.327 529.944 870.394 530.091 c 258
 868.77 530.067 l 258
 854.048 528.909 839.85 523.792 826.176 514.714 c 256
 818.685 509.301 811.552 503.257 804.776 496.583 c 256
 796.984 488.603 789.527 479.936 782.405 470.582 c 256
 767.346 450.333 747.155 419.133 721.83 376.98 c 256
 709.787 356.929 700.622 341.881 694.335 331.836 c 258
 583.335 154.836 l 258
 552.126 105.443 522.652 66.7978 494.912 38.9013 c 256
 488.401 32.4849 482.262 26.7835 476.496 21.797 c 256
 450.77 0.296923 425.132 -15.2195 399.584 -24.7522 c 258
 399.329 -24.8458 l 258
 377.5 -32.6564 355.768 -36.5616 334.132 -36.5616 c 256
 320.044 -36.1872 307.071 -34.7315 295.212 -32.1944 c 256
 268.252 -25.8276 243.39 -13.1515 220.625 5.83412 c 258
 220.326 6.09226 l 258
 217.939 8.15388 214.891 11.0142 211.18 14.6733 c 256
 195.129 31.1089 182.366 49.1128 172.89 68.6851 c 256
 156.626 103.283 148.426 142.161 148.291 185.32 c 256
 148.33 190.634 148.422 195.321 148.566 199.383 c 256
 150.04 231.261 155.781 268.662 165.789 311.589 c 256
 167.544 319.029 169.353 326.551 171.216 334.154 c 256
 190.245 411.917 200.538 465.676 202.097 495.431 c 256
 202.32 500.847 202.439 505.678 202.454 509.925 c 256
 202.007 554.197 192.706 590.375 174.552 618.458 c 256
 173.031 620.7 171.794 622.487 170.843 623.818 c 256
 165.707 630.639 160.648 636.587 155.664 641.662 c 256
 136.388 660.235 113.389 671.606 86.668 675.775 c 257
EndSplineSet
EndChar

StartChar: uni1701
Encoding: 5 5889 5
GlifName: uni1701
Width: 1011
VWidth: 0
GlyphClass: 2
Flags: MW
LayerCount: 2
Fore
SplineSet
15.9009 74.2726 m 257
 78.0652 199.744 l 257
 106.679 185.945 136.151 179.617 166.48 180.761 c 256
 197.934 182.977 226.537 192.054 252.287 207.99 c 256
 263.708 215.66 273.789 223.805 282.53 232.425 c 256
 294.43 244.659 304.464 258.042 312.633 272.572 c 256
 326.889 300.187 334.016 328.872 334.015 358.624 c 257
 473.887 362.742 l 257
 475.699 333.49 482.347 306.391 493.833 281.447 c 257
 513.954 307.507 527.31 339.717 533.104 371.351 c 257
 671.981 358.173 l 257
 671.883 319.673 680.709 284.72 698.457 253.315 c 256
 706.895 239.564 715.945 227.786 725.605 217.981 c 256
 733.357 210.473 741.285 204.025 749.388 198.637 c 256
 770.487 186.022 791.656 179.796 812.896 179.959 c 256
 835.07 181.362 854.366 188.401 870.785 201.075 c 257
 957.329 91.0141 l 257
 916.307 59.3037 869.779 42.3214 817.745 40.0672 c 258
 817.111 40.0425 l 258
 766.312 38.9781 708.68 57.4975 674.419 80.3659 c 256
 648 98 630.427 115.203 626.61 118.986 c 256
 610.778 135.076 596.661 152.682 584.262 171.805 c 257
 580.918 168.249 577.853 165.066 575.065 162.256 c 256
 558.266 145.691 540.249 130.894 521.013 117.867 c 258
 471.759 84.7565 l 257
 431.009 128.042 l 258
 421.469 138.316 412.709 148.746 404.726 159.333 c 257
 397.112 149.985 389.378 141.35 381.525 133.43 c 256
 365.062 117.217 347.268 102.838 328.144 90.2919 c 258
 327.278 89.7371 l 257
 280.345 60.5867 229.295 44.3393 174.127 40.995 c 258
 173.263 40.9507 l 258
 117.939 38.7926 65.4851 49.8999 15.9009 74.2726 c 257
6.19415 489.948 m 257
 99.8059 594.052 l 257
 144.504 554.461 197.487 532.385 258.755 527.826 c 256
 308.916 524.781 378.828 537.44 468.491 565.805 c 258
 478.171 568.892 l 258
 581.427 601.779 663.189 618.337 723.458 618.566 c 256
 733.276 618.499 741.408 618.273 749.389 617.85 c 256
 849.949 611.093 934.946 574.674 1004.38 508.59 c 257
 907.62 407.41 l 257
 862.169 450.176 806.601 473.75 740.916 478.131 c 256
 735.109 478.403 729.311 478.557 723.523 478.594 c 256
 677.039 478.185 609.538 463.853 521.017 435.599 c 258
 511.191 432.465 l 258
 403.873 398.387 316.558 383.624 249.245 388.174 c 256
 154.996 395.313 73.9795 429.238 6.19415 489.948 c 257
EndSplineSet
EndChar

StartChar: uni1702
Encoding: 6 5890 6
GlifName: uni1702
Width: 535
VWidth: 0
GlyphClass: 2
Flags: MW
LayerCount: 2
Fore
SplineSet
158.438 499.954 m 257
 93.5509 624.04 l 257
 219.442 689.178 368.67 696.387 454.02 609.749 c 256
 485.113 576.453 511.551 528.105 503.369 466.693 c 256
 497.064 422.932 475.738 385.648 450.15 358.406 c 257
 494.049 320.536 532.775 255.508 523.491 177.654 c 256
 513.952 103.417 483.238 50.3461 417.116 11.9709 c 256
 300 -56 164.261 -50.4353 35.1035 -1.43271 c 257
 84.772 129.48 l 257
 185.079 91.9257 318.535 85.2849 371.624 159.061 c 256
 389.538 188.182 386.817 224.174 365.08 246.623 c 256
 337.096 273.024 304.449 275.725 245.764 276.014 c 256
 235.905 276.014 226.046 276.014 216.187 276.014 c 258
 198 276.014 l 257
 198 415.986 l 257
 216 415.986 l 258
 263.382 416.159 302.648 418.325 329 433.352 c 256
 342.22 440.89 352.189 451.665 358.304 467.048 c 256
 371.828 501.069 339.412 526.211 308.616 531.936 c 256
 262.168 538.469 212.108 527.809 158.438 499.954 c 257
EndSplineSet
EndChar

StartChar: uni1703
Encoding: 7 5891 7
GlifName: uni1703
Width: 984
VWidth: 0
GlyphClass: 2
Flags: MW
AnchorPoint: "Anchor1" 539 0 basechar 0
AnchorPoint: "Anchor0" 488 693 basechar 0
AnchorPoint: "Anchor-1" 539 0 basechar 0
AnchorPoint: "Anchor-0" 488 693 basechar 0
LayerCount: 2
Fore
SplineSet
428.014 482 m 257
 567.986 482 l 257
 567.986 134 l 257
 428.014 134 l 257
 428.014 482 l 257
21.018 82.9918 m 257
 120.982 181.008 l 257
 121.458 180.523 121.934 180.042 122.412 179.565 c 256
 155.003 147.734 194.264 130.167 240.193 126.863 c 256
 264.534 125.817 289.425 128.606 314.866 135.23 c 256
 335.238 140.96 362.63 151.279 397.042 166.187 c 258
 535.177 226.246 l 258
 581.172 246.046 617.675 259.75 644.688 267.36 c 258
 645.228 267.509 l 258
 689.576 279.315 732.11 284.456 772.83 282.929 c 258
 773.553 282.897 l 257
 840.926 279.132 901.705 259.238 955.89 223.216 c 257
 878.11 106.784 l 257
 844.66 128.699 807.561 140.8 766.812 143.085 c 256
 739.971 143.896 711.791 140.366 682.271 132.495 c 256
 660.558 126.261 630.075 114.681 590.823 97.7541 c 258
 452.958 37.8126 l 258
 411.483 19.8807 377.72 7.32655 351.668 0.150195 c 258
 351.424 0.0834696 l 258
 310.588 -10.5373 270.847 -14.8597 232.2 -12.8838 c 258
 231.407 -12.8366 l 257
 149.558 -6.98994 80.2273 24.1455 23.4166 80.5699 c 256
 22.6135 81.3729 21.814 82.1802 21.018 82.9918 c 257
21.018 438.992 m 257
 120.982 537.008 l 257
 121.458 536.523 121.934 536.042 122.412 535.565 c 256
 155.004 503.734 194.264 486.167 240.193 482.863 c 256
 264.532 481.817 289.423 484.606 314.866 491.23 c 256
 335.235 496.959 362.627 507.278 397.042 522.187 c 258
 535.177 582.246 l 258
 581.169 602.045 617.673 615.75 644.689 623.36 c 258
 645.228 623.508 l 258
 689.577 635.315 732.111 640.456 772.83 638.929 c 258
 773.553 638.897 l 257
 840.925 635.132 901.704 615.238 955.89 579.216 c 257
 878.11 462.784 l 257
 844.66 484.7 807.561 496.8 766.812 499.085 c 256
 739.972 499.896 711.791 496.366 682.271 488.494 c 256
 660.556 482.26 630.073 470.68 590.823 453.754 c 258
 452.958 393.813 l 258
 411.479 375.879 377.716 363.325 351.667 356.15 c 258
 351.423 356.083 l 258
 310.586 345.463 270.845 341.14 232.199 343.116 c 258
 231.408 343.163 l 257
 149.558 349.01 80.2278 380.145 23.4166 436.57 c 256
 22.6135 437.373 21.814 438.18 21.018 438.992 c 257
EndSplineSet
EndChar

StartChar: uni1704
Encoding: 8 5892 8
GlifName: uni1704
Width: 840
VWidth: 0
GlyphClass: 2
Flags: HMW
AnchorPoint: "Anchor1" 545 0 basechar 0
AnchorPoint: "Anchor0" 400 693 basechar 0
AnchorPoint: "Anchor-1" 545 0 basechar 0
AnchorPoint: "Anchor-0" 400 693 basechar 0
LayerCount: 2
Fore
SplineSet
93.5509 624.04 m 257
 155.023826385 655.847041791 222.061185347 673.841537153 284.508506764 673.841537153 c 0
 349.947759933 673.841537153 410.346609919 654.081456589 454.02 609.749 c 256
 481.22879033 580.612413539 504.87296345 539.949593297 504.87296345 489.092698697 c 0
 504.87296345 432.527626469 479.208107367 389.342413979 450.15 358.406 c 257
 489.603662751 324.370823609 521.87890625 268.399414062 521.87890625 200.895507812 c 0
 521.87890625 112.471679688 486.040451887 51.9725579361 417.116 11.9709 c 256
 356.587353011 -23.1582592237 291.084324247 -38.6453549533 224.086377262 -38.6453549533 c 0
 161.450969639 -38.6453549533 97.5089872647 -25.1094651724 35.1035 -1.43271 c 257
 84.772 129.48 l 257
 129.63419448 112.683880984 181.127235482 102.071437914 229.095539173 102.071437914 c 0
 288.379158711 102.071437914 342.278996359 118.281178886 371.624 159.061 c 256
 379.537021231 171.924408019 383.423762261 186.128478566 383.423762261 199.91375976 c 0
 383.423762261 217.336473605 377.21527272 234.090233873 365.08 246.623 c 256
 337.096 273.024 304.449 275.725 245.764 276.014 c 258
 198 276.014 l 257
 198 415.986 l 257
 216 415.986 l 258
 284.036871473 416.234414562 361.462166237 420.155105676 361.462166237 482.702291214 c 0
 361.462166237 517.908065358 320.85788349 533.797794389 281.751193814 533.797794389 c 0
 243.016095599 533.797794389 201.911343352 522.516883903 158.438 499.954 c 257
 93.5509 624.04 l 257
544.149171914 503.14196085 m 0
 519.010244893 503.14196085 499.612512668 492.342598211 483.6 480.692 c 257
 400.288 593.226 l 257
 438.611088255 621.123197982 484.192462714 643.232292895 543.675539672 643.232292895 c 0
 659.950601125 643.232292895 724.183752298 561.473075176 734.167 453.654 c 256
 735.297781368 439.679164129 736.024187512 398.727264884 735.986 350 c 258
 735.986 174.259 l 258
 736.627540339 112.617065042 754.440995096 106.048974987 813.521 102.898 c 258
 833.521 101.898 l 257
 826.479 -37.8984 l 257
 806.479 -36.8984 l 258
 733.930047426 -32.9665255228 692.132724101 -20.0342058897 652.945 16.0762 c 256
 613.142789871 53.9809100337 596.619371256 97.2350190615 596.014 174 c 258
 596.014 350 l 258
 596.04166002 393.568099756 595.489047598 431.02841696 594.74 441.241 c 256
 591.072648058 475.368469726 580.53534755 503.14196085 544.149171914 503.14196085 c 0
EndSplineSet
EndChar

StartChar: uni1705
Encoding: 9 5893 9
GlifName: uni1705
Width: 1011
VWidth: 0
GlyphClass: 2
Flags: MW
AnchorPoint: "Anchor1" 564 0 basechar 0
AnchorPoint: "Anchor0" 488 693 basechar 0
AnchorPoint: "Anchor-1" 564 0 basechar 0
AnchorPoint: "Anchor-0" 488 693 basechar 0
LayerCount: 2
Fore
SplineSet
757.941 16.3374 m 257
 722.059 151.663 l 257
 759.292 161.872 790.182 179.114 814.729 203.389 c 256
 816.846 205.553 818.626 207.405 820.071 208.946 c 256
 833.293 224.238 842.779 239.599 848.529 255.028 c 256
 853.56 271.126 854.927 285.842 852.629 299.177 c 256
 849.38 311.848 844.051 322.007 836.641 329.654 c 258
 835.012 331.221 l 258
 825.116 338.878 814.421 343.162 802.926 344.072 c 256
 790.666 343.981 778.463 341.175 766.316 335.653 c 256
 753.364 328.9 738.005 318.264 720.239 303.745 c 256
 700.41 287.624 683.281 274.618 668.85 264.728 c 256
 654.689 255.223 642 248 631.983 243.204 c 258
 631.339 242.921 l 258
 611.587 234.438 591.636 228.561 571.486 225.288 c 258
 570.431 225.13 l 258
 555.393 223.095 537.249 222.056 516 222.014 c 258
 478 222.014 l 257
 478 361.986 l 257
 516 361.986 l 258
 530.574 362.044 541.93 362.591 550.067 363.627 c 256
 558.517 365.186 566.534 367.552 574.118 370.727 c 256
 595.277 382.041 609.748 394.322 631.761 412.255 c 256
 658.709 434.221 683.084 450.633 704.888 461.49 c 258
 705.388 461.736 l 258
 738.924 477.589 773.722 484.893 808.279 483.949 c 258
 809.084 483.923 l 257
 853.815 481.453 893.069 465.441 926.574 437.146 c 256
 927.721 436.141 928.91 435.057 930 434.04 c 256
 932.098 432.082 933.977 430.285 935.636 428.649 c 256
 962.856 400.841 980.832 367.397 989.561 328.32 c 258
 989.893 326.703 l 258
 997.053 287.901 994.018 248.4 980.783 209.041 c 258
 980.57 208.442 l 258
 968.328 175.013 949.567 144.017 924.286 115.455 c 258
 923.565 114.659 l 258
 920.011 110.847 916.731 107.426 913.724 104.394 c 256
 870.708 61.9421 818.78 32.5899 757.941 16.3374 c 257
145.686 673.028 m 257
 214.314 550.972 l 257
 182.732 533.207 l 258
 171.219 526.427 164 521.734 158.004 515.955 c 256
 154.65 512.722 155.497 507.952 159.073 504.473 c 256
 163.398 501.86 168.072 500.368 173.095 499.996 c 256
 177.673 500.386 182.792 501.272 188.453 502.652 c 256
 201.629 506.207 217.8 512.542 235 519.99 c 256
 259.223 530.479 281.054 538.185 300.492 543.109 c 256
 319.488 547.681 336.781 549.973 352.37 549.985 c 258
 353.268 549.981 l 257
 391.277 548.619 425.158 537.737 454.98 517.818 c 257
 455.809 517.227 l 258
 465.193 510.365 473.714 503.154 481.371 495.596 c 256
 497.161 479.445 510.245 461.232 520.625 440.956 c 258
 520.897 440.417 l 257
 542.11 395.75 551.796 340.901 549.954 275.873 c 258
 549.936 275.34 l 258
 548.392 238.73 543.545 206.907 535.395 179.873 c 258
 535.205 179.251 l 258
 522.816 142.365 504.749 111.908 481.004 87.8789 c 256
 479.219 86.0933 477.402 84.3444 475.555 82.6319 c 258
 474.893 82.019 l 257
 443.145 54.0628 405.076 37.3747 362.256 31.9737 c 258
 361.04 31.8374 l 258
 332.637 29.1198 298.457 31.6136 258.5 39.319 c 256
 230.674 44.7224 210.916 47.5527 199.226 47.8098 c 256
 187.665 47.1475 179 44.8244 174.17 41.3122 c 256
 170.716 38.8008 169.246 35.1661 168.674 28 c 257
 158.469 -99.769 l 257
 130.578 -97.1525 105.525 -87.4106 83.3074 -70.5433 c 258
 81.9855 -69.5238 l 257
 80.7113 -68.4404 l 258
 77.4788 -65.6012 74.656 -62.9981 72.2427 -60.6309 c 256
 55.849 -43.7332 44.0775 -24.0574 36.9282 -1.60346 c 258
 36.443 -0.0372947 l 257
 29.5703 26.4875 30.0775 53.7943 38.0649 80.5968 c 258
 38.5002 82.022 l 257
 38.9956 83.4264 l 258
 46.9419 104.934 59.0496 123.942 75.3187 140.452 c 256
 77.4397 142.521 79.2542 144.257 80.7623 145.66 c 258
 81.8296 146.637 l 257
 82.9335 147.568 l 258
 113.402 172.672 150.869 186.06 195.334 187.733 c 258
 195.895 187.751 l 258
 216.817 187.932 246.686 184.242 285.5 176.681 c 256
 311.685 171.591 331.85 169.7 345.993 171.009 c 256
 360.078 173.199 371.771 178.182 381.072 185.958 c 256
 381.388 186.259 381.7 186.564 382.009 186.874 c 256
 390.289 195.795 396.859 207.345 401.721 221.524 c 256
 406.308 237.586 409.085 257.21 410.054 280.394 c 256
 411.096 322.478 406.203 355.126 395.375 378.339 c 256
 389.649 388.826 383.719 396.176 375.473 402.533 c 256
 362.431 410.122 350.868 411.187 334.588 407.325 c 256
 321.777 403.971 307.037 398.656 290.367 391.381 c 256
 265.485 380.344 243.214 372.259 223.554 367.123 c 256
 204.404 362.369 187.048 360 171.487 360.016 c 258
 169.773 360.049 l 257
 131.345 361.705 97.9284 373.959 69.5244 396.81 c 258
 68.5331 397.619 l 257
 67.5703 398.465 l 258
 64.616 401.135 62.0574 403.532 59.8944 405.659 c 256
 34.2382 431.995 19.6983 463.421 16.2747 499.939 c 258
 16.1547 501.33 l 257
 14.4432 538.146 24.8869 571.289 46.7937 601.11 c 258
 47.6018 602.194 l 257
 48.4523 603.248 l 258
 52.0104 607.513 55.5294 611.414 59.0093 614.95 c 256
 72.9037 628.525 90.8689 641.736 112.905 654.582 c 258
 113.686 655.028 l 257
 145.686 673.028 l 257
EndSplineSet
EndChar

StartChar: uni1706
Encoding: 10 5894 10
GlifName: uni1706
Width: 975
VWidth: 0
GlyphClass: 2
Flags: MW
AnchorPoint: "Anchor1" 539 0 basechar 0
AnchorPoint: "Anchor0" 488 693 basechar 0
AnchorPoint: "Anchor-1" 539 0 basechar 0
AnchorPoint: "Anchor-0" 488 693 basechar 0
LayerCount: 2
Fore
SplineSet
160 374 m 257
 160 374 163.106 373.648 168 373.539 c 256
 171.796 373.454 176.667 373.515 182 374 c 256
 193 375 208.868 381.314 224.921 390.296 c 256
 263.852 412.076 291.098 437.188 330.969 471.096 c 256
 395.792 525.908 446.95 564.396 484.874 586.565 c 256
 558.795 628.838 634.413 654.595 711.649 663.393 c 256
 799.691 672.513 886.469 658.35 952.785 633.475 c 257
 903.437 502.442 l 257
 857.86 519.204 802.391 529.528 742.564 524.319 c 256
 679.427 517.843 617.078 496.624 555.516 460.664 c 256
 442.444 393.477 357.046 299.752 302.11 175.865 c 256
 276.667 116.814 261.205 56.1725 255.725 -6.05967 c 257
 116.267 5.9718 l 257
 123.346 85.3979 143.165 163.531 175.635 236.065 c 257
 150.549 236.996 127.766 242.324 108 251.403 c 256
 66.725 270.361 38.6023 305.672 30.1165 351.456 c 256
 19.5353 416.622 52.1443 461.288 91.5858 485.798 c 257
 160 374 l 257
EndSplineSet
EndChar

StartChar: uni1707
Encoding: 11 5895 11
GlifName: uni1707
Width: 1048
VWidth: 0
GlyphClass: 2
Flags: MW
AnchorPoint: "Anchor1" 552 0 basechar 0
AnchorPoint: "Anchor0" 527 693 basechar 0
AnchorPoint: "Anchor-1" 552 0 basechar 0
AnchorPoint: "Anchor-0" 527 693 basechar 0
LayerCount: 2
Fore
SplineSet
193.503 508.497 m 257
 281 423 l 257
 265.223 407.224 l 258
 223.826 365.264 201.728 326.623 201.728 269.267 c 256
 201.728 209.291 260.997 180.143 319.756 180.143 c 256
 450.456 180.143 619.471 268.003 734.975 268.003 c 256
 845.735 268.003 942.413 232.715 1022.2 165.458 c 257
 931.804 58.5418 l 257
 873.434 107.558 812.024 127.297 743.263 127.297 c 256
 601.723 127.297 464.838 41.0958 322.109 41.0958 c 256
 180.628 41.0958 60.7335 127.933 60.7335 268.943 c 256
 60.7335 375.53 120.979 435.356 177.28 492.274 c 258
 193.503 508.497 l 257
25.6174 486.7 m 257
 116.383 593.3 l 257
 171.893 545.945 229.517 527.774 293.474 527.774 c 256
 425.484 527.774 620.105 614.526 752.747 614.526 c 256
 851.923 614.526 940.044 585.278 1023.19 512.6 c 257
 930.81 407.4 l 257
 873.524 457.008 815.001 476.013 749.665 476.013 c 256
 619.001 476.013 423.63 389.163 290.996 389.163 c 256
 194.054 389.163 107.43 417.275 25.6174 486.7 c 257
EndSplineSet
EndChar

StartChar: uni1708
Encoding: 12 5896 12
GlifName: uni1708
Width: 850
VWidth: 0
GlyphClass: 2
Flags: MW
AnchorPoint: "Anchor1" 437 -88 basechar 0
AnchorPoint: "Anchor0" 410 693 basechar 0
AnchorPoint: "Anchor-0" 410 693 basechar 0
AnchorPoint: "Anchor-1" 437 -88 basechar 0
LayerCount: 2
Fore
SplineSet
209.97 23.4303 m 257
 78.0297 -23.4303 l 257
 46.8626 64.6188 34.5968 156.789 40.23 244 c 256
 46.9689 348.33 79.3235 445.561 135.578 520.148 c 256
 194.812 596.02 286.181 661.27 404.879 668.867 c 256
 536.849 675.152 640.516 610.543 703.677 535.51 c 256
 769.286 456.157 806.359 357.878 812.886 241.766 c 256
 817.471 150.876 803.703 62.1202 771.581 -24.5027 c 257
 640.371 24.3738 l 257
 666.984 95.8165 677.084 172.494 671.221 244 c 256
 664.16 330.116 633.947 408.732 581.546 461.672 c 256
 542.368 500.111 484.804 532.505 413.123 529.133 c 256
 339.608 523.57 283.358 481.934 246.991 435.344 c 256
 206.84 381.216 184.13 314.026 178.86 233.777 c 256
 175.131 163.056 185.501 92.9401 209.97 23.4303 c 257
308 -19 m 257
 329.701 19.6084 351.646 47.4756 382.325 76.8564 c 257
 378.661 78.5898 374.934 80.1943 371.332 82.0557 c 256
 342.573 96.9189 319.224 122.086 316 154 c 256
 312.224 196.086 326.521 224.224 356.518 243.134 c 258
 371.428 252.534 l 257
 359.61 258.222 348.168 267.628 338.847 279 c 256
 326.375 294.215 317.7 312.949 317 331 c 256
 316.283 349.491 320.728 364.487 328.748 377 c 256
 335.174 387.027 343.896 395.459 354.099 402.818 c 258
 382.599 423.376 l 257
 353.72 458.836 340.219 499.51 340.014 565 c 258
 340.014 589 l 257
 479.986 589 l 257
 479.986 565 l 258
 480.154 533.276 482.044 516.288 499.23 505.637 c 256
 528.333 490.108 551 468 553.443 432.248 c 256
 554.657 413.618 550.612 396.711 543.211 382 c 256
 535.02 365.719 522.718 352.128 508.882 341.869 c 257
 526.193 332.662 539.407 323.077 548.877 312 c 256
 561.9 296.768 567.843 278.714 567.627 254.943 c 256
 567.273 215.977 547.58 198.059 523.304 182.753 c 258
 507.273 172.647 l 257
 523.312 164.527 537.154 152.108 547.125 137 c 256
 557.679 121.007 563.895 101.999 563.784 81.8848 c 256
 563.586 45.9795 539.755 21.5578 514.584 4.31641 c 256
 477.292 -21.2275 452.643 -47.3145 430.438 -86.9434 c 257
 308 -19 l 257
EndSplineSet
EndChar

StartChar: uni1709
Encoding: 13 5897 13
GlifName: uni1709
Width: 1070
VWidth: 0
GlyphClass: 2
Flags: HMW
AnchorPoint: "Anchor1" 590 0 basechar 0
AnchorPoint: "Anchor0" 488 693 basechar 0
AnchorPoint: "Anchor-1" 590 0 basechar 0
AnchorPoint: "Anchor-0" 488 693 basechar 0
LayerCount: 2
Fore
SplineSet
662.047 342.169 m 257
 769.161 432.327 l 257
 798.718 397.349 823.152 364.573 842.462 334 c 256
 863.243 301.098 878.836 267.651 897 233 c 257
 770.295 173.393 l 257
 755.984 203.721 739.112 234.355 721.326 262 c 256
 703.333 289.967 683.573 316.69 662.047 342.169 c 257
57 336.014 m 257
 57 475.986 l 257
 184.283 475.996 l 258
 220.108 475.996 249.637 474.529 272.423 462.93 c 256
 314.128 440.682 341.735 401.493 332.167 337.287 c 258
 320.184 259.395 l 258
 313.026 212.208 309.223 189.253 309.223 167.951 c 256
 309.223 131.258 317.681 103.252 349.196 99.8726 c 256
 413.767 100.197 463.178 172.614 496.502 214.912 c 256
 563.295 300.909 639.996 435.861 701.324 536.614 c 256
 745.607 607.296 796.125 671.222 903.338 671.222 c 256
 988.97 671.222 1057.06 615.449 1086.76 550.931 c 257
 959.245 493.069 l 257
 949.631 512.535 929.331 531.085 902.348 531.085 c 256
 858.112874726 531.085 840.481377449 495.045335087 820.671 463.378 c 258
 708.822 279.624 l 258
 666.858772899 210.900639186 608.767786483 120.761249161 540.000007773 53.6821926169 c 4
 483.984187328 -0.958053986166 420.8841442 -40.2974 353.646 -40.2974 c 256
 278.762 -40.2974 223.181 1.86006 195.553 52.4421 c 256
 178.017 85.2463 169.249 123.898 169.249 168.398 c 256
 169.249 195.876257089 178 249 184.769813416 299.999998498 c 24
 187 314 188.709140762 325.408588405 190.353 336.094 c 257
 185.568654929 336.107462349 180.784503001 336.088259748 176 336.08538947 c 2
 57 336.014 l 257
EndSplineSet
EndChar

StartChar: uni170A
Encoding: 14 5898 14
GlifName: uni170A_
Width: 847
VWidth: 0
GlyphClass: 2
Flags: MW
AnchorPoint: "Anchor1" 516 -79 basechar 0
AnchorPoint: "Anchor0" 484 693 basechar 0
AnchorPoint: "Anchor-1" 516 -79 basechar 0
AnchorPoint: "Anchor-0" 484 693 basechar 0
LayerCount: 2
Fore
SplineSet
566.075 -38.4905 m 256
 501.714 -38.4905 454.237 -15.9552 416.271 17.3922 c 257
 370.266 -11.7091 307.386 -38.7794 241.474 -38.7794 c 256
 93.4407 -38.7794 7.61291 81.6369 26.5667 236 c 256
 48.3951 413.774 168.474 577.276 315.055 641.639 c 256
 361.943 661.341 410.119 670.819 457.07 670.819 c 256
 518.069 670.819 577 654.821 628.358 624.462 c 256
 743.608 554.238 832.535 414.714 813.645 224 c 256
 803.684 123.423 758.68 42.8267 690.895 -0.869716 c 256
 657.218 -22.1702 615.359 -38.4905 566.075 -38.4905 c 256
456.074 530.917 m 256
 356.566 530.917 290.423 468.931 244.468 406 c 256
 202.724 348.837 163.906 277.735 163.906 194.095 c 256
 163.906 142.672 188.611 101.084 243.8 101.084 c 256
 301.777 101.084 346.017 135.003 381.528 166.351 c 258
 447.23 224.768 l 257
 489.433 147.585 l 258
 503.117 123.522 528.573 101.215 564.177 101.215 c 256
 643.749 101.215 675.87 184.846 675.87 266.16 c 256
 675.87 322.768 663.633 371.771 642.404 412 c 256
 608.717 475.836 546.77 530.917 456.074 530.917 c 256
EndSplineSet
EndChar

StartChar: uni170B
Encoding: 15 5899 15
GlifName: uni170B_
Width: 1030
VWidth: 0
GlyphClass: 2
Flags: MW
AnchorPoint: "Anchor1" 577 0 basechar 0
AnchorPoint: "Anchor0" 488 693 basechar 0
AnchorPoint: "Anchor-1" 577 0 basechar 0
AnchorPoint: "Anchor-0" 488 693 basechar 0
LayerCount: 2
Fore
SplineSet
573.52 262 m 257
 516.489 262 494.501 262 411 262 c 256
 343.828 262 314.66 262 264.188 262 c 257
 211.812 388 l 257
 274.864 388 345.837 388 404 388 c 256
 475 388 559.241 387.354 638.48 388 c 257
 573.52 262 l 257
915.853 491.95 m 257
 906.801 510.861 888.949 528.475 863.095 528.475 c 256
 817.859 528.475 798.079 492.802 777.047 460.381 c 258
 605.196 188.616 l 258
 546.303 96.1693 460.008 -41.9947 331.989 -41.9947 c 256
 207.149 -41.9947 148.691 72.5759 148.691 201.917 c 256
 148.691 266.297 156.824 315.883 170.646 376 c 256
 172 381.887 173.408 387.876 174.869 393.989 c 257
 170.997 394 167.339 394.008 163.895 394.014 c 258
 62 394.014 l 257
 62 533.986 l 257
 164.105 533.986 l 258
 213.542 533.879 237.131 533.741 266.099 516.185 c 256
 297.475 496.346 321.512 467.419 321.512 418.403 c 256
 321.512 403.502 319.187 393.788 315.761 380.438 c 256
 298.607 313.403 288.648 265.851 288.648 201.198 c 256
 288.648 157.903 296.281 120.155 319.101 102.301 c 256
 323.924 99.7175 328.228 98.2868 332.011 98.0088 c 256
 354.362 100.362 367.477 114.772 382.508 129.503 c 256
 418.571 166.11 453.337 210.737 486.804 263.384 c 256
 544.185 354.126 601.567 444.869 658.948 535.611 c 256
 686.065 577.343 700 603 740.675 629.532 c 256
 782 657 819.118 668.51 861.753 668.51 c 256
 952.173 668.51 1015.38 612.894 1044.15 548.05 c 257
 915.853 491.95 l 257
EndSplineSet
EndChar

StartChar: uni170C
Encoding: 16 5900 16
GlifName: uni170C_
Width: 1079
VWidth: 0
GlyphClass: 2
Flags: MW
AnchorPoint: "Anchor1" 583 0 basechar 0
AnchorPoint: "Anchor0" 520 693 basechar 0
AnchorPoint: "Anchor-1" 583 0 basechar 0
AnchorPoint: "Anchor-0" 520 693 basechar 0
LayerCount: 2
Fore
SplineSet
836.538 469.477 m 257
 851.681 462.712 865.742 458.105 885.439 458.105 c 256
 912.612 458.105 943.481 469.779 943.481 496.661 c 256
 943.481 518.183 923.814 530.86 901.545 530.86 c 256
 857.644 530.86 840.359 494.854 820.672 463.379 c 258
 708.822 279.624 l 258
 650.564 184.215 609.451 122.676 543.36 56.317 c 256
 493.91 7.36426 432.525 -40.0816 349.981 -40.0816 c 256
 277.144 -40.0816 222.528 3.05632 195.553 52.4421 c 256
 178.017 85.2463 169.249 123.898 169.249 168.398 c 256
 169.249 200.629 173.251 224.26 181.816 280.605 c 258
 190.353 336.094 l 257
 57 336.014 l 257
 57 475.986 l 257
 179 475.986 l 258
 216.552 476.112 248.609 475.053 272.423 462.93 c 256
 307.705 444.109 333.223 414.29 334.517 363.723 c 256
 333.454 308.556 309.232 213.919 309.232 168.658 c 256
 309.232 131.471 317.765 103.243 349.196 99.8726 c 256
 413.767 100.197 463.178 172.614 496.502 214.912 c 256
 563.447 301.105 638.598 436.484 701.323 536.613 c 256
 745.389 606.957 795.217 670.819 901.961 670.819 c 256
 1003.04 670.819 1083.57 599.588 1083.57 497.248 c 256
 1083.57 386.814 993.864 318.058 885.544 318.058 c 256
 842.56 318.058 808.756 328.094 777.403 342.551 c 257
 836.538 469.477 l 257
EndSplineSet
EndChar

StartChar: uni170E
Encoding: 17 5902 17
GlifName: uni170E_
Width: 913
VWidth: 0
GlyphClass: 2
Flags: HMW
AnchorPoint: "Anchor1" 507 -49 basechar 0
AnchorPoint: "Anchor0" 488 693 basechar 0
AnchorPoint: "Anchor-1" 507 -49 basechar 0
AnchorPoint: "Anchor-0" 488 693 basechar 0
LayerCount: 2
Fore
SplineSet
408.054 302.489 m 257
 392.626729099 318.599184156 380.516301695 336.306865828 372.335349933 357 c 0
 366.069038066 372.850189076 362.108150932 390.451944178 360.728 410.429 c 257
 312.46 394.125 267.697 385.973 226.439 385.973 c 256
 132.099 385.973 56.0392 423.554 -1.15549 484.217 c 257
 101.104 579.838 l 257
 132.349 547.105 174.714 525.952 225.725 525.952 c 256
 272.517 525.952 331.786 544.516 403.531 581.645 c 256
 482.558 622.691 539.948 648.842 576.624 659.916 c 256
 613.842 670.883 652.513 678.241 696.875 678.241 c 256
 783.179 678.241 846.047 651.496 900.473 613.125 c 257
 822.553 496.844 l 257
 782.998 521.455 743.462 534.628 692.346 534.628 c 256
 638.157218067 534.628 555.621585232 513.91902178 519.000000929 470.261087098 c 4
 507.377865336 456.405912719 500.38 440.239415767 500.38 421.69 c 256
 500.38 395.715 523.469 393.007 537.857 383.887 c 256
 563.585 366.768 583.833 343.719 583.833 302.99 c 256
 583.833 270.474 569.194 248.34 550.842 231.036 c 257
 577.817 214.364 602.859 187.344 603.341 146.807 c 256
 602.855 68.2557 536.662 51.5125 497.439 11.4596 c 256
 485.45 -1.44431 475.238 -14.7337 466.801 -28.4086 c 257
 347.199 44.4086 l 257
 368.13 78.2455 394.486 109.13 424.44 134.396 c 257
 390.946 151.412 365.441 185.141 365.441 221.738 c 256
 365.441 255 385.251 285.172 408.054 302.489 c 257
EndSplineSet
EndChar

StartChar: uni170F
Encoding: 18 5903 18
GlifName: uni170F_
Width: 761
VWidth: 0
GlyphClass: 2
Flags: HMW
AnchorPoint: "Anchor1" 457 -30 basechar 0
AnchorPoint: "Anchor0" 537 742 basechar 0
AnchorPoint: "Anchor-1" 457 -30 basechar 0
AnchorPoint: "Anchor-0" 537 742 basechar 0
LayerCount: 2
Fore
SplineSet
297.941 607.663 m 257
 351.990312477 670.351911152 426.74442616 714.404 519.273 714.404 c 256
 658.69 714.404 744.485 616.806 744.485 476.023 c 256
 744.485 386.851 720.219 304.539 678.327 222.105 c 256
 619.138 107.317 517.387 -42.0129 353.4 -42.0129 c 256
 233.737 -42.0129 159.315 47.1784 159.315 166.602 c 256
 159.315 208.765 175.964 280.51 188.735 337.979 c 257
 182.823328505 337.960514651 176.911656706 337.982165312 171 337.983747963 c 2
 58 338.014 l 257
 58 477.986 l 257
 186.503 477.984 l 258
 240.51 477.984 271.301 468.087 298.389 441.582 c 256
 327.208 411.737 339.826 374.003 328.312 320.732 c 258
 316.342 266.868 l 258
 305.197 216.066 299.306 192.264 299.306 166.759 c 256
 299.306 126.682 313.961 98.1755 352.048 98.1755 c 256
 449.928 98.1755 518.023 216.598 553.589 285.731 c 256
 585.641 349.844 605.521 406.202 605.521 476.636 c 256
 605.521 536.871 578.174 574.539 520.157 574.539 c 256
 471.515 574.539 432.178 548.95 404.059 516.337 c 257
 297.941 607.663 l 257
EndSplineSet
EndChar

StartChar: uni1710
Encoding: 19 5904 19
GlifName: uni1710
Width: 922
VWidth: 0
GlyphClass: 2
Flags: MW
AnchorPoint: "Anchor1" 609 -79 basechar 0
AnchorPoint: "Anchor0" 488 693 basechar 0
AnchorPoint: "Anchor-1" 609 -79 basechar 0
AnchorPoint: "Anchor-0" 488 693 basechar 0
LayerCount: 2
Fore
SplineSet
256.11 -44 m 257
 142.014 -45 l 257
 142.014 530.014 l 257
 20 530.014 l 257
 20 669.986 l 257
 281.986 669.986 l 257
 281.986 284.187 l 257
 371.165 440.655 l 258
 414.308 515.956 446.898 563.156 487.521 599.788 c 256
 535.31 641.519 590.507 673.774 669.543 673.774 c 256
 788.505 673.774 884.014 584.417 884.014 470.773 c 256
 884.014 416.859 862.147 369.859 835.434 338.979 c 257
 876.113 304.117 910.021 245.861 910.021 181.163 c 256
 910.021 78.54 833.675 7.82486 752.344 -21.3117 c 256
 699.632 -39.4672 637.556 -44.0089 562.148 -44.0089 c 258
 516 -43.9863 l 257
 516 95.9863 l 257
 561.004 95.9648 l 258
 655.229 95.9648 763.85 98.963 770.068 180.974 c 257
 768.88 256.42 677.972 261.9 598 262.014 c 258
 588 262.014 l 257
 585.29 401.934 l 257
 637.29 403.934 l 258
 694.759 406.308 744.081 413.581 744.081 470.11 c 256
 744.081 507.226 707.315 533.729 669.684 533.729 c 256
 627.852 533.729 598.519 512.992 574.605 489.53 c 256
 551.935 466.432 525 427 492.835 371.345 c 258
 256.11 -44 l 257
EndSplineSet
EndChar

StartChar: uni1711
Encoding: 20 5905 20
GlifName: uni1711
Width: 1049
VWidth: 0
GlyphClass: 2
Flags: MW
AnchorPoint: "Anchor1" 507 60 basechar 0
AnchorPoint: "Anchor0" 507 623 basechar 0
AnchorPoint: "Anchor-1" 507 60 basechar 0
AnchorPoint: "Anchor-0" 507 623 basechar 0
LayerCount: 2
Fore
SplineSet
24.0098 300.225 m 257
 115.99 405.775 l 257
 230.132 307.701 350.064 332.409 513.396 384.165 c 256
 727.769 451.584 889.762 449.131 1026.72 317.259 c 257
 929.304 216.714 l 257
 826.695 314.735 710.099 299.65 549.724 248.805 c 256
 338.323 182.104 173.252 170.629 24.0098 300.225 c 257
EndSplineSet
EndChar

StartChar: uni1712
Encoding: 21 5906 21
GlifName: uni1712
Width: 0
VWidth: 0
GlyphClass: 4
Flags: HMW
AnchorPoint: "Mkmk" -17 780 basemark 0
AnchorPoint: "Mkmk" -315 780 mark 0
AnchorPoint: "Anchor0" -171 653 mark 0
AnchorPoint: "Anchor-0" -171 653 mark 0
LayerCount: 2
Fore
SplineSet
-278.642 777.67 m 256
 -278.642 838.67 -228.642 888.67 -167.642 888.67 c 256
 -106.642 888.67 -56.6416 838.67 -56.6416 777.67 c 256
 -56.6416 716.67 -106.642 666.67 -167.642 666.67 c 256
 -228.642 666.67 -278.642 716.67 -278.642 777.67 c 256
EndSplineSet
EndChar

StartChar: uni1713
Encoding: 22 5907 22
GlifName: uni1713
Width: 0
VWidth: 0
GlyphClass: 4
Flags: HMW
AnchorPoint: "Mkmk" -253 -100 mark 0
AnchorPoint: "Mkmk" 45 -100 basemark 0
AnchorPoint: "Anchor1" -98 30 mark 0
AnchorPoint: "Anchor-1" -98 30 mark 0
LayerCount: 2
Fore
SplineSet
-209 -99 m 256
 -209 -38 -159 12 -98 12 c 256
 -37 12 13 -38 13 -99 c 256
 13 -160 -37 -210 -98 -210 c 256
 -159 -210 -209 -160 -209 -99 c 256
EndSplineSet
EndChar

StartChar: uni1714
Encoding: 23 5908 23
GlifName: uni1714
Width: 0
VWidth: 0
GlyphClass: 4
Flags: MW
AnchorPoint: "Anchor1" -264 0 mark 0
AnchorPoint: "Anchor-1" -264 0 mark 0
LayerCount: 2
Fore
SplineSet
-307.093 -277.405 m 257
 -307.093 -190.031 l 257
 -396.249 -190.031 l 257
 -396.249 -100.875 l 257
 -307.093 -100.875 l 257
 -307.093 -11.7188 l 257
 -217.937 -11.7188 l 257
 -217.937 -100.875 l 257
 -130.562 -100.875 l 257
 -130.562 -190.031 l 257
 -217.937 -190.031 l 257
 -217.937 -277.405 l 257
 -307.093 -277.405 l 257
EndSplineSet
EndChar

StartChar: uni1735
Encoding: 24 5941 24
GlifName: uni1735
Width: 329
VWidth: 0
GlyphClass: 2
Flags: HMW
LayerCount: 2
Fore
SplineSet
122.235 -153.61 m 257
 -14.235 -122.39 l 257
 187.765 765.61 l 257
 324.235 734.39 l 257
 122.235 -153.61 l 257
EndSplineSet
EndChar

StartChar: uni1736
Encoding: 25 5942 25
GlifName: uni1736
Width: 538
VWidth: 0
GlyphClass: 2
Flags: HMW
LayerCount: 2
Fore
SplineSet
332.235 -163.61 m 257
 195.765 -132.39 l 257
 397.765 755.61 l 257
 534.235 724.39 l 257
 332.235 -163.61 l 257
122.235 -153.61 m 257
 -14.2354 -122.39 l 257
 187.765 765.61 l 257
 324.235 734.39 l 257
 122.235 -153.61 l 257
EndSplineSet
EndChar

StartChar: uni25CC
Encoding: 29 9676 29
GlifName: uni25C_C_
Width: 594
VWidth: 0
GlyphClass: 2
Flags: MW
AnchorPoint: "Anchor1" 295 0 basechar 0
AnchorPoint: "Anchor0" 300 590 basechar 0
AnchorPoint: "Anchor-1" 295 0 basechar 0
AnchorPoint: "Anchor-0" 300 590 basechar 0
LayerCount: 2
Fore
SplineSet
323 514 m 256
 323 496 314.333 487 297 487 c 256
 279.667 487 271 496 271 514 c 256
 271 531.333 279.667 540 297 540 c 256
 314.333 540 323 531.333 323 514 c 256
408 496 m 256
 408 478.667 399.667 470 383 470 c 256
 364.333 470 355 478.667 355 496 c 256
 355 514 364.333 523 383 523 c 256
 399.667 523 408 514 408 496 c 256
239 496 m 256
 239 478.667 230 470 212 470 c 256
 194.667 470 186 478.667 186 496 c 256
 186 514 194.667 523 212 523 c 256
 230 523 239 514 239 496 c 256
480 448 m 256
 480 430.667 471.667 422 455 422 c 256
 437 422 428 430.667 428 448 c 256
 428 466 437 475 455 475 c 256
 471.667 475 480 466 480 448 c 256
167 448 m 256
 167 430.667 158 422 140 422 c 256
 122.667 422 114 430.333 114 447 c 256
 114 465.667 122.667 475 140 475 c 256
 158 475 167 466 167 448 c 256
529 376 m 256
 529 358 520 349 502 349 c 256
 484.667 349 476 358 476 376 c 256
 476 393.333 485 402 503 402 c 256
 520.333 402 529 393.333 529 376 c 256
118 376 m 256
 118 358 109.667 349 93 349 c 256
 74.3333 349 65 358 65 376 c 256
 65 393.333 74 402 92 402 c 256
 109.333 402 118 393.333 118 376 c 256
546 291 m 256
 546 273.667 537.667 265 521 265 c 256
 503 265 494 273.667 494 291 c 256
 494 308.333 503 317 521 317 c 256
 537.667 317 546 308.333 546 291 c 256
101 291 m 256
 101 273.667 92.3333 265 75 265 c 256
 57 265 48 273.667 48 291 c 256
 48 308.333 57 317 75 317 c 256
 92.3333 317 101 308.333 101 291 c 256
529 206 m 256
 529 188.667 520 180 502 180 c 256
 484.667 180 476 188.667 476 206 c 256
 476 224 484.667 233 502 233 c 256
 520 233 529 224 529 206 c 256
118 206 m 256
 118 188.667 109.333 180 92 180 c 256
 74 180 65 188.667 65 206 c 256
 65 224 74 233 92 233 c 256
 109.333 233 118 224 118 206 c 256
480 133 m 256
 480 115.667 471.667 107 455 107 c 256
 437 107 428 115.667 428 133 c 256
 428 151 437 160 455 160 c 256
 471.667 160 480 151 480 133 c 256
167 133 m 256
 167 115.667 158 107 140 107 c 256
 122.667 107 114 115.667 114 133 c 256
 114 151 122.667 160 140 160 c 256
 158 160 167 151 167 133 c 256
408 85 m 256
 408 68.3333 399.667 60 383 60 c 256
 364.333 60 355 68.3333 355 85 c 256
 355 103 364.333 112 383 112 c 256
 399.667 112 408 103 408 85 c 256
239 87 m 256
 239 69 230 60 212 60 c 256
 194.667 60 186 68.3333 186 85 c 256
 186 103 194.667 112 212 112 c 256
 230 112 239 103.667 239 87 c 256
323 69 m 256
 323 51 314.333 42 297 42 c 256
 279.667 42 271 51 271 69 c 256
 271 86.3333 279.667 95 297 95 c 256
 314.333 95 323 86.3333 323 69 c 256
EndSplineSet
EndChar

StartChar: uni170D
Encoding: 31 5901 30
GlifName: uni170D_
Width: 1048
VWidth: 0
GlyphClass: 2
Flags: MW
AnchorPoint: "Anchor1" 462 0 basechar 0
AnchorPoint: "Anchor0" 527 693 basechar 0
AnchorPoint: "Anchor-1" 462 0 basechar 0
AnchorPoint: "Anchor-0" 527 693 basechar 0
LayerCount: 2
Fore
SplineSet
193.503 508.497 m 257
 281 423 l 257
 265.223 407.224 l 258
 223.826 365.264 201.728 326.623 201.728 269.267 c 256
 201.728 209.291 260.997 180.143 319.756 180.143 c 256
 450.456 180.143 619.471 268.003 734.975 268.003 c 256
 845.735 268.003 942.413 232.715 1022.2 165.458 c 257
 931.804 58.5418 l 257
 873.434 107.558 812.024 127.297 743.263 127.297 c 256
 601.723 127.297 464.838 41.0958 322.109 41.0958 c 256
 180.628 41.0958 60.7335 127.933 60.7335 268.943 c 256
 60.7335 375.53 120.979 435.356 177.28 492.274 c 258
 193.503 508.497 l 257
25.6174 486.7 m 257
 116.383 593.3 l 257
 171.893 545.945 229.517 527.774 293.474 527.774 c 256
 425.484 527.774 620.105 614.526 752.747 614.526 c 256
 851.923 614.526 940.044 585.278 1023.19 512.6 c 257
 930.81 407.4 l 257
 873.524 457.008 815.001 476.013 749.665 476.013 c 256
 619.001 476.013 423.63 389.163 290.996 389.163 c 256
 194.054 389.163 107.43 417.275 25.6174 486.7 c 257
662.39 220.964 m 257
 791.651 167.134 l 257
 772.74 122.192 755 87 721.288 42.3722 c 256
 683 -8 650.564 -40.138 607.799 -73.4001 c 257
 522.087 37.3118 l 257
 555.208 63.254 583.743 92.4296 608.712 125.627 c 256
 630.309 155.347 648.201 187.126 662.39 220.964 c 257
EndSplineSet
EndChar

StartChar: uni1734
Encoding: 32 5940 31
GlifName: uni1734
Width: 149
VWidth: 0
GlyphClass: 2
Flags: MW
LayerCount: 2
Fore
SplineSet
-1.98627 264 m 257
 137.986 264 l 257
 137.986 31.8786 l 258
 137.534 -124.363 120.728 -209.968 45.2437 -286.166 c 256
 -15.1831 -345.602 -82.3145 -369.78 -204 -369.986 c 258
 -296 -369.986 l 257
 -296 -230.014 l 257
 -204 -230.014 l 258
 -114.964 -229.727 -73.988 -217.181 -38.7289 -169.498 c 256
 -7.05968 -122.235 -2.12747 -49.9871 -1.98617 32.1214 c 258
 -1.98627 264 l 257
EndSplineSet
EndChar

StartChar: uni1712.hollow
Encoding: 33 -1 32
GlifName: uni1712.hollow
Width: 0
VWidth: 0
GlyphClass: 4
Flags: HMW
AnchorPoint: "Mkmk" -315 780 mark 0
AnchorPoint: "Mkmk" -17 780 basemark 0
AnchorPoint: "Anchor0" -171 653 mark 0
AnchorPoint: "Anchor-0" -171 653 mark 0
LayerCount: 2
Fore
SplineSet
-212.042 777.67 m 256
 -212.042 753.27 -192.042 733.27 -167.642 733.27 c 256
 -143.241 733.27 -123.241 753.27 -123.241 777.67 c 256
 -123.241 802.07 -143.241 822.07 -167.642 822.07 c 256
 -192.042 822.07 -212.042 802.07 -212.042 777.67 c 256
-278.642 777.67 m 256
 -278.642 838.67 -228.642 888.67 -167.642 888.67 c 256
 -106.642 888.67 -56.6416 838.67 -56.6416 777.67 c 256
 -56.6416 716.67 -106.642 666.67 -167.642 666.67 c 256
 -228.642 666.67 -278.642 716.67 -278.642 777.67 c 256
EndSplineSet
EndChar

StartChar: uni1713.hollow
Encoding: 34 -1 33
GlifName: uni1713.hollow
Width: 0
VWidth: 0
GlyphClass: 4
Flags: HMWO
AnchorPoint: "Mkmk" 45 -100 basemark 0
AnchorPoint: "Mkmk" -253 -100 mark 0
AnchorPoint: "Anchor1" -98 30 mark 0
AnchorPoint: "Anchor-1" -98 30 mark 0
LayerCount: 2
Fore
SplineSet
-142.4 -99 m 256
 -142.4 -123.4 -122.4 -143.4 -98 -143.4 c 256
 -73.5996 -143.4 -53.5996 -123.4 -53.5996 -99 c 256
 -53.5996 -74.5996 -73.5996 -54.5996 -98 -54.5996 c 256
 -122.4 -54.5996 -142.4 -74.5996 -142.4 -99 c 256
-209 -99 m 256
 -209 -38 -159 12 -98 12 c 256
 -37 12 13 -38 13 -99 c 256
 13 -160 -37 -210 -98 -210 c 256
 -159 -210 -209 -160 -209 -99 c 256
EndSplineSet
EndChar

StartChar: uni170C.avar
Encoding: 35 -1 34
GlifName: uni170C_.avar
Width: 1079
VWidth: 0
GlyphClass: 2
Flags: MW
AnchorPoint: "Anchor1" 583 0 basechar 0
AnchorPoint: "Anchor0" 520 693 basechar 0
AnchorPoint: "Anchor-1" 583 0 basechar 0
AnchorPoint: "Anchor-0" 520 693 basechar 0
LayerCount: 2
Fore
SplineSet
885.439 458.105 m 256
 912.612 458.105 943.481 469.779 943.481 496.661 c 256
 943.481 518.183 923.814 530.86 901.545 530.86 c 256
 857.644 530.86 840.359 494.854 820.672 463.379 c 258
 708.822 279.624 l 258
 650.564 184.215 609.451 122.676 543.36 56.317 c 256
 493.91 7.36426 432.525 -40.0816 349.981 -40.0816 c 256
 277.144 -40.0816 222.528 3.05632 195.553 52.4421 c 256
 178.017 85.2463 169.249 123.898 169.249 168.398 c 256
 169.249 200.629 173.251 224.26 181.816 280.605 c 258
 190.353 336.094 l 257
 57 336.014 l 257
 57 475.986 l 257
 179 475.986 l 258
 216.552 476.112 248.609 475.053 272.423 462.93 c 256
 307.705 444.109 333.223 414.29 334.517 363.723 c 256
 333.454 308.556 309.232 213.919 309.232 168.658 c 256
 309.232 131.471 317.765 103.243 349.196 99.8726 c 256
 413.767 100.197 463.178 172.614 496.502 214.912 c 256
 563.447 301.105 638.598 436.484 701.323 536.613 c 256
 745.389 606.957 795.217 670.819 901.961 670.819 c 256
 1003.04 670.819 1083.57 599.588 1083.57 497.248 c 256
 1083.57 386.814 993.864 318.058 885.544 318.058 c 256
 821.728 318.058 778 335 733 362 c 257
 796 481 l 257
 821.964 469.194 849.726 458.105 885.439 458.105 c 256
EndSplineSet
EndChar

StartChar: uni170D.avar
Encoding: 36 -1 35
GlifName: uni170D_.avar
Width: 1048
VWidth: 0
GlyphClass: 2
Flags: MW
AnchorPoint: "Anchor1" 752 3 basechar 0
AnchorPoint: "Anchor0" 527 693 basechar 0
AnchorPoint: "Anchor-1" 752 3 basechar 0
AnchorPoint: "Anchor-0" 527 693 basechar 0
LayerCount: 2
Fore
SplineSet
193.503 508.497 m 257
 281 423 l 257
 265.223 407.224 l 258
 223.826 365.264 201.728 326.623 201.728 269.267 c 256
 201.728 209.291 260.997 180.143 319.756 180.143 c 256
 450.456 180.143 619.471 268.003 734.975 268.003 c 256
 845.735 268.003 942.413 232.715 1022.2 165.458 c 257
 931.804 58.5418 l 257
 873.434 107.558 812.024 127.297 743.263 127.297 c 256
 601.723 127.297 464.838 41.0958 322.109 41.0958 c 256
 180.628 41.0958 60.7335 127.933 60.7335 268.943 c 256
 60.7335 375.53 120.979 435.356 177.28 492.274 c 258
 193.503 508.497 l 257
25.6174 486.7 m 257
 116.383 593.3 l 257
 171.893 545.945 229.517 527.774 293.474 527.774 c 256
 425.484 527.774 620.105 614.526 752.747 614.526 c 256
 851.923 614.526 940.044 585.278 1023.19 512.6 c 257
 930.81 407.4 l 257
 873.524 457.008 815.001 476.013 749.665 476.013 c 256
 619.001 476.013 423.63 389.163 290.996 389.163 c 256
 194.054 389.163 107.43 417.275 25.6174 486.7 c 257
686.738 367.83 m 257
 816 314 l 257
 791 246 753 162 709.576 98.7451 c 256
 657.212 22.4666 585 -58 537.799 -93.4004 c 257
 452.087 17.3115 l 257
 503 62 564 134 596 182 c 256
 625.54 226.311 664 291 686.738 367.83 c 257
EndSplineSet
EndChar

StartChar: _ra_tail
Encoding: 37 -1 36
GlifName: _ra_tail
Width: 1048
VWidth: 0
GlyphClass: 2
Flags: HMW
LayerCount: 2
Fore
SplineSet
662.39 220.964 m 261
 791.651 167.134 l 257
 772.74 122.192 755 87 721.288 42.3722 c 256
 683 -8 650.564 -40.138 607.799 -73.4001 c 257
 522.087 37.3118 l 257
 555.208 63.254 583.743 92.4296 608.712 125.627 c 256
 630.309 155.347 648.201 187.126 662.39 220.964 c 261
EndSplineSet
EndChar

StartChar: uni171F
Encoding: 39 5919 38
GlifName: uni171F_
Width: 809
VWidth: 0
GlyphClass: 2
Flags: MW
AnchorPoint: "Anchor1" 154 -105 basechar 0
AnchorPoint: "Anchor0" 601 882 basechar 0
AnchorPoint: "Anchor-0" 601 882 basechar 0
AnchorPoint: "Anchor-1" 154 -105 basechar 0
LayerCount: 2
Fore
SplineSet
122.416 119.623 m 257
 124.435 104.09 132.028 88.9559 150.732 88.9559 c 256
 169.423 88.9559 176.564 91.2881 191.074 138.617 c 258
 296.073 481.111 l 258
 328.756 587.754 382.359 823.103 587.746 823.103 c 256
 697.666 823.103 803.204 743.241 803.204 614.998 c 256
 803.204 546.519 776.624 485.412 727.485 445.922 c 257
 752.24 412.237 765.341 374.592 765.341 331.52 c 256
 765.341 266.53 731.53 214.103 687.877 183.762 c 257
 724.038 144.095 746.879 91.9822 746.879 31.8345 c 256
 746.879 -105.667 623.048 -183.636 504.765 -183.636 c 256
 442.91 -183.636 382.691 -166.504 327.358 -134.679 c 257
 397.158 -13.3205 l 257
 433.71 -34.3437 468.496 -43.6361 504.765 -43.6361 c 256
 572.349 -43.6361 606.879 -6.04311 606.879 31.8345 c 256
 606.879 86.9295 551.433 132 476 132 c 257
 475.804 272 l 257
 589 257 625.341 300.847 625.341 331.52 c 256
 625.341 376 580 392 550 392 c 257
 550 532 l 257
 618.85 532 663.204 562 663.204 614.998 c 256
 663.204 656.758 634.859 683.103 587.746 683.103 c 256
 516.727 683.103 473.145 581.102 429.927 440.088 c 258
 324.926 97.5823 l 258
 306.627 37.8982 260.185 -51.0441 150.732 -51.0441 c 256
 60.5644 -51.0441 -6.23867 23.2848 -16.416 101.576 c 257
 122.416 119.623 l 257
EndSplineSet
EndChar

StartChar: uni1714.salt
Encoding: 40 -1 39
GlifName: uni1714.salt
Width: 0
VWidth: 0
GlyphClass: 4
Flags: MW
AnchorPoint: "Anchor1" -264 0 mark 0
AnchorPoint: "Anchor-1" -264 0 mark 0
LayerCount: 2
Fore
SplineSet
-387.786 -207.79 m 257
 -326.003 -146.007 l 257
 -389.046 -82.9639 l 257
 -326.003 -19.9209 l 257
 -262.96 -82.9639 l 257
 -199.917 -19.9209 l 257
 -136.874 -82.9639 l 257
 -199.917 -146.007 l 257
 -138.134 -207.79 l 257
 -201.178 -270.833 l 257
 -262.96 -209.05 l 257
 -324.743 -270.833 l 257
 -387.786 -207.79 l 257
EndSplineSet
EndChar

StartChar: pahantig
Encoding: 41 -1 40
GlifName: pahantig
Width: 284
VWidth: 0
GlyphClass: 2
Flags: MW
LayerCount: 2
Fore
SplineSet
37.3584 306.67 m 256
 37.3584 367.67 87.3584 417.67 148.358 417.67 c 256
 209.358 417.67 259.358 367.67 259.358 306.67 c 256
 259.358 245.67 209.358 195.67 148.358 195.67 c 256
 87.3584 195.67 37.3584 245.67 37.3584 306.67 c 256
EndSplineSet
EndChar

StartChar: pahantig_hollow
Encoding: 42 -1 41
GlifName: pahantig_hollow
Width: 284
VWidth: 0
GlyphClass: 2
Flags: MW
LayerCount: 2
Fore
SplineSet
103.958 307.67 m 256
 103.958 283.27 123.958 263.27 148.358 263.27 c 256
 172.759 263.27 192.759 283.27 192.759 307.67 c 256
 192.759 332.07 172.759 352.07 148.358 352.07 c 256
 123.958 352.07 103.958 332.07 103.958 307.67 c 256
37.3584 307.67 m 256
 37.3584 368.67 87.3584 418.67 148.358 418.67 c 256
 209.358 418.67 259.358 368.67 259.358 307.67 c 256
 259.358 246.67 209.358 196.67 148.358 196.67 c 256
 87.3584 196.67 37.3584 246.67 37.3584 307.67 c 256
EndSplineSet
EndChar

StartChar: padalawa
Encoding: 43 -1 42
GlifName: padalawa
Width: 284
VWidth: 0
GlyphClass: 2
Flags: HMW
LayerCount: 2
Fore
SplineSet
37.3584 446.67 m 260
 37.3584 507.67 87.3584 557.67 148.358 557.67 c 256
 209.358 557.67 259.358 507.67 259.358 446.67 c 256
 259.358 385.67 209.358 335.67 148.358 335.67 c 256
 87.3584 335.67 37.3584 385.67 37.3584 446.67 c 260
37.3584 136.67 m 256
 37.3584 197.67 87.3584 247.67 148.358 247.67 c 256
 209.358 247.67 259.358 197.67 259.358 136.67 c 256
 259.358 75.6699 209.358 25.6699 148.358 25.6699 c 256
 87.3584 25.6699 37.3584 75.6699 37.3584 136.67 c 256
EndSplineSet
EndChar

StartChar: padalawa_hollow
Encoding: 44 -1 43
GlifName: padalawa_hollow
Width: 284
VWidth: 0
GlyphClass: 2
Flags: HMW
LayerCount: 2
Back
SplineSet
37.3584 136.67 m 256
 37.3584 197.67 87.3584 247.67 148.358 247.67 c 256
 209.358 247.67 259.358 197.67 259.358 136.67 c 256
 259.358 75.6699 209.358 25.6699 148.358 25.6699 c 256
 87.3584 25.6699 37.3584 75.6699 37.3584 136.67 c 256
EndSplineSet
Refer: 41 -1 N 1 0 0 1 0 140 2
Fore
SplineSet
103.958007812 447.669921875 m 256
 103.958007812 423.26953125 123.958007812 403.26953125 148.358398438 403.26953125 c 256
 172.758789062 403.26953125 192.758789062 423.26953125 192.758789062 447.669921875 c 256
 192.758789062 472.0703125 172.758789062 492.0703125 148.358398438 492.0703125 c 256
 123.958007812 492.0703125 103.958007812 472.0703125 103.958007812 447.669921875 c 256
37.3583984375 447.669921875 m 256
 37.3583984375 508.669921875 87.3583984375 558.669921875 148.358398438 558.669921875 c 256
 209.358398438 558.669921875 259.358398438 508.669921875 259.358398438 447.669921875 c 256
 259.358398438 386.669921875 209.358398438 336.669921875 148.358398438 336.669921875 c 256
 87.3583984375 336.669921875 37.3583984375 386.669921875 37.3583984375 447.669921875 c 256
37.3584 136.67 m 256
 37.3584 197.67 87.3584 247.67 148.358 247.67 c 256
 209.358 247.67 259.358 197.67 259.358 136.67 c 256
 259.358 75.6699 209.358 25.6699 148.358 25.6699 c 256
 87.3584 25.6699 37.3584 75.6699 37.3584 136.67 c 256
EndSplineSet
EndChar

StartChar: padalawa_hollow2
Encoding: 45 -1 44
GlifName: padalawa_hollow2
Width: 284
VWidth: 0
GlyphClass: 2
Flags: HMW
LayerCount: 2
Back
SplineSet
37.3584 446.67 m 256
 37.3584 507.67 87.3584 557.67 148.358 557.67 c 256
 209.358 557.67 259.358 507.67 259.358 446.67 c 256
 259.358 385.67 209.358 335.67 148.358 335.67 c 256
 87.3584 335.67 37.3584 385.67 37.3584 446.67 c 256
EndSplineSet
Refer: 41 -1 N 1 0 0 1 0 -170 2
Fore
SplineSet
103.958007812 137.669921875 m 256
 103.958007812 113.26953125 123.958007812 93.26953125 148.358398438 93.26953125 c 256
 172.758789062 93.26953125 192.758789062 113.26953125 192.758789062 137.669921875 c 256
 192.758789062 162.0703125 172.758789062 182.0703125 148.358398438 182.0703125 c 256
 123.958007812 182.0703125 103.958007812 162.0703125 103.958007812 137.669921875 c 256
37.3583984375 137.669921875 m 256
 37.3583984375 198.669921875 87.3583984375 248.669921875 148.358398438 248.669921875 c 256
 209.358398438 248.669921875 259.358398438 198.669921875 259.358398438 137.669921875 c 256
 259.358398438 76.669921875 209.358398438 26.669921875 148.358398438 26.669921875 c 256
 87.3583984375 26.669921875 37.3583984375 76.669921875 37.3583984375 137.669921875 c 256
37.3584 446.67 m 256
 37.3584 507.67 87.3584 557.67 148.358 557.67 c 256
 209.358 557.67 259.358 507.67 259.358 446.67 c 256
 259.358 385.67 209.358 335.67 148.358 335.67 c 256
 87.3584 335.67 37.3584 385.67 37.3584 446.67 c 256
EndSplineSet
EndChar

StartChar: padalawa_hollow_hollow
Encoding: 46 -1 45
GlifName: padalawa_hollow_hollow
Width: 284
VWidth: 0
GlyphClass: 2
Flags: HMW
LayerCount: 2
Back
Refer: 41 -1 N 1 0 0 1 0 -170 2
Refer: 41 -1 N 1 0 0 1 0 140 2
Fore
SplineSet
103.958007812 447.669921875 m 256
 103.958007812 423.26953125 123.958007812 403.26953125 148.358398438 403.26953125 c 256
 172.758789062 403.26953125 192.758789062 423.26953125 192.758789062 447.669921875 c 256
 192.758789062 472.0703125 172.758789062 492.0703125 148.358398438 492.0703125 c 256
 123.958007812 492.0703125 103.958007812 472.0703125 103.958007812 447.669921875 c 256
37.3583984375 447.669921875 m 256
 37.3583984375 508.669921875 87.3583984375 558.669921875 148.358398438 558.669921875 c 256
 209.358398438 558.669921875 259.358398438 508.669921875 259.358398438 447.669921875 c 256
 259.358398438 386.669921875 209.358398438 336.669921875 148.358398438 336.669921875 c 256
 87.3583984375 336.669921875 37.3583984375 386.669921875 37.3583984375 447.669921875 c 256
103.958007812 137.669921875 m 256
 103.958007812 113.26953125 123.958007812 93.26953125 148.358398438 93.26953125 c 256
 172.758789062 93.26953125 192.758789062 113.26953125 192.758789062 137.669921875 c 256
 192.758789062 162.0703125 172.758789062 182.0703125 148.358398438 182.0703125 c 256
 123.958007812 182.0703125 103.958007812 162.0703125 103.958007812 137.669921875 c 256
37.3583984375 137.669921875 m 256
 37.3583984375 198.669921875 87.3583984375 248.669921875 148.358398438 248.669921875 c 256
 209.358398438 248.669921875 259.358398438 198.669921875 259.358398438 137.669921875 c 256
 259.358398438 76.669921875 209.358398438 26.669921875 148.358398438 26.669921875 c 256
 87.3583984375 26.669921875 37.3583984375 76.669921875 37.3583984375 137.669921875 c 256
EndSplineSet
EndChar
